<?xml version="1.0" encoding="UTF-8"?>
<svg xmlns="http://www.w3.org/2000/svg" style="stroke-dasharray:none; shape-rendering:auto; font-family:'Arial'; text-rendering:auto; fill-opacity:1; color-interpolation:auto; color-rendering:auto; font-size:12; fill:black; stroke:black; image-rendering:auto; stroke-miterlimit:10; stroke-linecap:square; stroke-linejoin:miter; font-style:normal; stroke-width:1; stroke-dashoffset:0; font-weight:normal; stroke-opacity:1;" contentScriptType="text/ecmascript" preserveAspectRatio="xMidYMid meet" zoomAndPan="magnify" version="1.0" contentStyleType="text/css" xml:xlink="http://www.w3.org/1999/xlink" width="721" height="532"><rect x="100" y="391" width="621" height="141" ry="0" rx="0" style="stroke:#000000; fill:#C0C7CC" /><g componentSequence="11"><text x="-461" y="107" transform="rotate(270)" text-anchor="middle" style="font-weight:bold;font-size:10px;stroke:none; fill:#434343"><tspan dy="14" x="-461">RH</tspan></text></g><rect x="100" y="0" width="621" height="220" ry="0" rx="0" style="stroke:#000000; fill:#C0C7CC" /><g componentSequence="2"><text x="-110" y="107" transform="rotate(270)" text-anchor="middle" style="font-weight:bold;font-size:10px;stroke:none; fill:#434343"><tspan dy="14" x="-110">Usuário Fluig</tspan></text></g><rect x="100" y="219" width="621" height="172" ry="0" rx="0" style="stroke:#000000; fill:#DFDFDF" /><g componentSequence="3"><text x="-305" y="107" transform="rotate(270)" text-anchor="middle" style="font-weight:bold;font-size:10px;stroke:none; fill:#434343"><tspan dy="14" x="-305">Treinador</tspan></text></g><g sequence="4"><ellipse cx="202" cy="77" rx="17" ry="17" stroke-width="1" style="fill:url(#linearGradient66FF6696FF96B6FFB6_1712998638);" stroke="336633" /></g><g sequence="12"><rect x="150" y="270" width="106" height="70" ry="5" rx="5" style="fill:url(#linearGradientF8FBFEEDF5FCDEEDFAD4E7F8E2E5E9_1759361629);" stroke="191970" /></g><g componentSequence="12"><text x="203" y="285" text-anchor="middle" style="font-weight:bold;font-size:10px;stroke:none; fill:#333399"><tspan dy="14" x="203">Aplicar</tspan><tspan dy="14" x="203">treinamento</tspan></text></g><g sequence="15"><rect x="370" y="426" width="106" height="70" ry="5" rx="5" style="fill:url(#linearGradientF8FBFEEDF5FCDEEDFAD4E7F8E2E5E9_1826759582);" stroke="191970" /></g><g componentSequence="15"><text x="423" y="441" text-anchor="middle" style="font-weight:bold;font-size:10px;stroke:none; fill:#333399"><tspan dy="14" x="423">Avaliar</tspan><tspan dy="14" x="423">treinamento</tspan></text></g><g sequence="17"><polygon points=" 523 440 553 410 583 440 553 470 523 440" style="fill:url(#linearGradientFAFBFCFFFFCC_702591078);" stroke="000000" /></g><g componentSequence="17"><text x="553" y="480" text-anchor="middle" style="font-weight:bold;font-size:10px;stroke:none; fill:#333399"><tspan dy="14" x="553">Aprovad</tspan><tspan dy="14" x="553">o</tspan></text></g><g sequence="19"><ellipse cx="667" cy="461" rx="17" ry="17" stroke-width="3" style="fill:url(#linearGradientFF6666FF9696FFB6B6_487178380);" stroke="993333" /></g><g sequence="21"><rect x="500" y="270" width="106" height="70" ry="5" rx="5" style="fill:url(#linearGradientF8FBFEEDF5FCDEEDFAD4E7F8E2E5E9_402890274);" stroke="191970" /></g><g componentSequence="21"><text x="553" y="285" text-anchor="middle" style="font-weight:bold;font-size:10px;stroke:none; fill:#333399"><tspan dy="14" x="553">Ajustar</tspan><tspan dy="14" x="553">treinamento</tspan></text></g><g sequence="25"><polygon points=" 300 50 330 20 360 50 330 80 300 50" style="fill:url(#linearGradientFAFBFCFFFFCC_1694543983);" stroke="000000" /></g><g componentSequence="25"><text x="330" y="90" text-anchor="middle" style="font-weight:bold;font-size:10px;stroke:none; fill:#333399"><tspan dy="14" x="330">Abertura</tspan><tspan dy="14" x="330">automáti</tspan><tspan dy="14" x="330">ca?</tspan></text></g><g sequence="26"><rect x="150" y="130" width="106" height="70" ry="5" rx="5" style="fill:url(#linearGradientF8FBFEEDF5FCDEEDFAD4E7F8E2E5E9_1238322985);" stroke="191970" /></g><g componentSequence="26"><text x="203" y="145" text-anchor="middle" style="font-weight:bold;font-size:10px;stroke:none; fill:#333399"><tspan dy="14" x="203">Detalhar</tspan><tspan dy="14" x="203">treinamento</tspan></text></g><g componentSequence="16"><text x="236" y="450" style="font-size:10px;font-weight:none;stroke:none; fill:#333399" text-anchor="left" /></g><g componentSequence="18"><text x="509" y="451" style="font-size:10px;font-weight:none;stroke:none; fill:#333399" text-anchor="left" /></g><g componentSequence="20"><text x="626" y="451" style="font-size:10px;font-weight:none;stroke:none; fill:#333399" text-anchor="left" /></g><g componentSequence="22"><text x="563" y="365" style="font-size:10px;font-weight:none;stroke:none; fill:#333399" text-anchor="left" /></g><g componentSequence="23"><text x="433" y="317" style="font-size:10px;font-weight:none;stroke:none; fill:#333399" text-anchor="left" /></g><g componentSequence="27"><text x="317" y="155" style="font-size:10px;font-weight:none;stroke:none; fill:#333399" text-anchor="left" /></g><g componentSequence="28"><text x="399" y="233" style="font-size:10px;font-weight:none;stroke:none; fill:#333399" text-anchor="left" /></g><g componentSequence="31"><text x="213" y="225" style="font-size:10px;font-weight:none;stroke:none; fill:#333399" text-anchor="left" /></g><g componentSequence="30"><text x="270" y="67" style="font-size:10px;font-weight:none;stroke:none; fill:#333399" text-anchor="left" /></g><path style="fill:none; stroke:#000000;stroke-width:1" d="M219.0 77.0 L299.0 77.0" /><polygon style="fill:#000000; stroke:#000000;" points=" 289 72 299 77 289 82 291 77" /><path style="fill:none; stroke:#000000;stroke-width:1" d="M202.0 340.0 L202.0 460.0 L369.0 460.0" /><polygon style="fill:#000000; stroke:#000000;" points=" 359 455 369 460 359 465 361 460" /><path style="fill:none; stroke:#000000;stroke-width:1" d="M360.0 78.0 L389.0 78.0 L389.0 186.0 L389.0 304.0 L256.0 304.0" /><polygon style="fill:#000000; stroke:#000000;" points=" 266 309 256 304 266 299 264 304" /><path style="fill:none; stroke:#000000;stroke-width:1" d="M476.0 461.0 L522.0 461.0" /><polygon style="fill:#000000; stroke:#000000;" points=" 512 456 522 461 512 466 514 461" /><path style="fill:none; stroke:#000000;stroke-width:1" d="M499.0 305.0 L423.0 305.0 L423.0 425.0" /><polygon style="fill:#000000; stroke:#000000;" points=" 428 415 423 425 418 415 423 417" /><path style="fill:none; stroke:#000000;stroke-width:1" d="M583.0 461.0 L649.0 461.0" /><polygon style="fill:#000000; stroke:#000000;" points=" 639 456 649 461 639 466 641 461" /><path style="fill:none; stroke:#000000;stroke-width:1" d="M553.0 409.0 L553.0 340.0" /><polygon style="fill:#000000; stroke:#000000;" points=" 548 350 553 340 558 350 553 348" /><path style="fill:none; stroke:#000000;stroke-width:1" d="M329.0 136.0 L329.0 165.0 L256.0 165.0" /><polygon style="fill:#000000; stroke:#000000;" points=" 266 170 256 165 266 160 264 165" /><path style="fill:none; stroke:#000000;stroke-width:1" d="M203.0 200.0 L203.0 269.0" /><polygon style="fill:#000000; stroke:#000000;" points=" 208 259 203 269 198 259 203 261" /><defs><linearGradient xmlns:xlink="http://www.w3.org/1999/xlink" xlink:href="#linearGradient66FF6696FF96B6FFB6" id="linearGradient66FF6696FF96B6FFB6_1712998638" x1="0" y1="60.0" x2="0" y2="95.0" gradientUnits="userSpaceOnUse" xlink:type="simple" xlink:actuate="onLoad" xlink:show="other" /><linearGradient id="linearGradient66FF6696FF96B6FFB6"><stop style="stop-color:#66FF66;stop-opacity:1;" offset="0.0" id="stop66FF66" /><stop style="stop-color:#96FF96;stop-opacity:1;" offset="0.5" id="stop96FF96" /><stop style="stop-color:#B6FFB6;stop-opacity:1;" offset="1.0" id="stopB6FFB6" /></linearGradient><linearGradient xmlns:xlink="http://www.w3.org/1999/xlink" xlink:href="#linearGradientF8FBFEEDF5FCDEEDFAD4E7F8E2E5E9" id="linearGradientF8FBFEEDF5FCDEEDFAD4E7F8E2E5E9_1759361629" x1="0" y1="270.0" x2="0" y2="376.0" gradientUnits="userSpaceOnUse" xlink:type="simple" xlink:actuate="onLoad" xlink:show="other" /><linearGradient id="linearGradientF8FBFEEDF5FCDEEDFAD4E7F8E2E5E9"><stop style="stop-color:#F8FBFE;stop-opacity:1;" offset="0.0" id="stopF8FBFE" /><stop style="stop-color:#EDF5FC;stop-opacity:1;" offset="0.25" id="stopEDF5FC" /><stop style="stop-color:#DEEDFA;stop-opacity:1;" offset="0.5" id="stopDEEDFA" /><stop style="stop-color:#D4E7F8;stop-opacity:1;" offset="0.75" id="stopD4E7F8" /><stop style="stop-color:#E2E5E9;stop-opacity:1;" offset="1.0" id="stopE2E5E9" /></linearGradient><linearGradient xmlns:xlink="http://www.w3.org/1999/xlink" xlink:href="#linearGradientF8FBFEEDF5FCDEEDFAD4E7F8E2E5E9" id="linearGradientF8FBFEEDF5FCDEEDFAD4E7F8E2E5E9_1826759582" x1="0" y1="426.0" x2="0" y2="532.0" gradientUnits="userSpaceOnUse" xlink:type="simple" xlink:actuate="onLoad" xlink:show="other" /><linearGradient xmlns:xlink="http://www.w3.org/1999/xlink" xlink:href="#linearGradientFAFBFCFFFFCC" id="linearGradientFAFBFCFFFFCC_702591078" x1="0" y1="410.0" x2="0" y2="470.0" gradientUnits="userSpaceOnUse" xlink:type="simple" xlink:actuate="onLoad" xlink:show="other" /><linearGradient id="linearGradientFAFBFCFFFFCC"><stop style="stop-color:#FAFBFC;stop-opacity:1;" offset="0.0" id="stopFAFBFC" /><stop style="stop-color:#FFFFCC;stop-opacity:1;" offset="1.0" id="stopFFFFCC" /></linearGradient><linearGradient xmlns:xlink="http://www.w3.org/1999/xlink" xlink:href="#linearGradientFF6666FF9696FFB6B6" id="linearGradientFF6666FF9696FFB6B6_487178380" x1="0" y1="444.0" x2="0" y2="479.0" gradientUnits="userSpaceOnUse" xlink:type="simple" xlink:actuate="onLoad" xlink:show="other" /><linearGradient id="linearGradientFF6666FF9696FFB6B6"><stop style="stop-color:#FF6666;stop-opacity:1;" offset="0.0" id="stopFF6666" /><stop style="stop-color:#FF9696;stop-opacity:1;" offset="0.5" id="stopFF9696" /><stop style="stop-color:#FFB6B6;stop-opacity:1;" offset="1.0" id="stopFFB6B6" /></linearGradient><linearGradient xmlns:xlink="http://www.w3.org/1999/xlink" xlink:href="#linearGradientF8FBFEEDF5FCDEEDFAD4E7F8E2E5E9" id="linearGradientF8FBFEEDF5FCDEEDFAD4E7F8E2E5E9_402890274" x1="0" y1="270.0" x2="0" y2="376.0" gradientUnits="userSpaceOnUse" xlink:type="simple" xlink:actuate="onLoad" xlink:show="other" /><linearGradient xmlns:xlink="http://www.w3.org/1999/xlink" xlink:href="#linearGradientFAFBFCFFFFCC" id="linearGradientFAFBFCFFFFCC_1694543983" x1="0" y1="20.0" x2="0" y2="80.0" gradientUnits="userSpaceOnUse" xlink:type="simple" xlink:actuate="onLoad" xlink:show="other" /><linearGradient xmlns:xlink="http://www.w3.org/1999/xlink" xlink:href="#linearGradientF8FBFEEDF5FCDEEDFAD4E7F8E2E5E9" id="linearGradientF8FBFEEDF5FCDEEDFAD4E7F8E2E5E9_1238322985" x1="0" y1="130.0" x2="0" y2="236.0" gradientUnits="userSpaceOnUse" xlink:type="simple" xlink:actuate="onLoad" xlink:show="other" /></defs></svg>
